<?xml version="1.0" encoding="utf-8"?>
<!-- Generator: Adobe Illustrator 27.8.1, SVG Export Plug-In . SVG Version: 6.00 Build 0)  -->
<svg version="1.1" id="Layer_1" xmlns="http://www.w3.org/2000/svg" xmlns:xlink="http://www.w3.org/1999/xlink" x="0px" y="0px"
	 viewBox="0 0 1190.55 841.89" style="enable-background:new 0 0 1190.55 841.89;" xml:space="preserve">
<g>
	<path d="M653.11,492.5h-37.14c-4.89,0-9.67-1.73-13.26-5.05c-0.36-0.33-0.72-0.68-1.07-1.03c-0.79-0.79-1.54-1.61-2.25-2.45
		c-2.92-3.48-4.4-7.95-4.4-12.5v-37.09c0-7.67-6.22-13.89-13.89-13.89h-37.09c-4.55,0-9.02-1.48-12.5-4.4
		c-0.84-0.7-1.66-1.45-2.45-2.25c-0.35-0.35-0.69-0.71-1.03-1.07c-3.32-3.59-5.05-8.37-5.05-13.26v-37.14
		c0-7.67-6.22-13.89-13.89-13.89h-44.22c-7.67,0-13.89,6.22-13.89,13.89v44.22c0,7.67,6.22,13.89,13.89,13.89h37.14
		c4.89,0,9.67,1.73,13.26,5.05c0.36,0.33,0.72,0.68,1.07,1.03c0.79,0.79,1.54,1.61,2.25,2.45c2.92,3.48,4.4,7.95,4.4,12.5v29.95
		c0,4.55-1.48,9.02-4.4,12.5c-0.7,0.84-1.45,1.66-2.25,2.45c-0.35,0.35-0.71,0.69-1.07,1.03c-3.59,3.32-8.37,5.05-13.26,5.05h-37.14
		c-7.67,0-13.89,6.22-13.89,13.89v44.22c0,7.67,6.22,13.89,13.89,13.89h44.22c7.67,0,13.89-6.22,13.89-13.89v-37.14
		c0-4.89,1.73-9.67,5.05-13.26c0.33-0.36,0.68-0.72,1.03-1.07c0.79-0.79,1.61-1.54,2.45-2.25c3.48-2.92,7.95-4.4,12.5-4.4h29.95
		c4.55,0,9.02,1.48,12.5,4.4c0.84,0.7,1.66,1.45,2.45,2.25c0.35,0.35,0.69,0.71,1.03,1.07c3.32,3.59,5.05,8.37,5.05,13.26v37.14
		c0,7.67,6.22,13.89,13.89,13.89h44.22c7.67,0,13.89-6.22,13.89-13.89v-44.22C667,498.72,660.78,492.5,653.11,492.5z"/>
	<path d="M671.4,357.03c0.7-0.84,1.45-1.66,2.25-2.45c0.35-0.35,0.71-0.69,1.07-1.03c3.59-3.32,8.37-5.05,13.26-5.05h37.14
		c7.67,0,13.89-6.22,13.89-13.89v-44.22c0-7.67-6.22-13.89-13.89-13.89h-44.22c-7.67,0-13.89,6.22-13.89,13.89v37.14
		c0,4.89-1.73,9.67-5.05,13.26c-0.33,0.36-0.68,0.72-1.03,1.07c-0.79,0.79-1.61,1.54-2.45,2.25c-3.48,2.92-7.95,4.4-12.5,4.4h-29.95
		c-4.55,0-9.02-1.48-12.5-4.4c-0.84-0.7-1.66-1.45-2.45-2.25c-0.35-0.35-0.69-0.71-1.03-1.07c-3.32-3.59-5.05-8.37-5.05-13.26
		v-37.14c0-7.67-6.22-13.89-13.89-13.89h-44.22c-7.67,0-13.89,6.22-13.89,13.89v44.22c0,7.67,6.22,13.89,13.89,13.89h37.14
		c4.89,0,9.67,1.73,13.26,5.05c0.36,0.33,0.72,0.68,1.07,1.03c0.79,0.79,1.54,1.61,2.25,2.45c2.92,3.48,4.4,7.95,4.4,12.5v37.09
		c0,7.67,6.22,13.89,13.89,13.89h37.09c4.55,0,9.02,1.48,12.5,4.4c0.84,0.7,1.66,1.45,2.45,2.25c0.35,0.35,0.69,0.71,1.03,1.07
		c3.32,3.59,5.05,8.37,5.05,13.26v37.14c0,7.67,6.22,13.89,13.89,13.89h44.22c7.67,0,13.89-6.22,13.89-13.89v-44.22
		c0-7.67-6.22-13.89-13.89-13.89h-37.14c-4.89,0-9.67-1.73-13.26-5.05c-0.36-0.33-0.72-0.68-1.07-1.03
		c-0.79-0.79-1.54-1.61-2.25-2.45c-2.92-3.48-4.4-7.95-4.4-12.5v-29.95C667,364.98,668.48,360.51,671.4,357.03z"/>
</g>
</svg>
