<?xml version="1.0" encoding="utf-8"?>
<!-- Generator: Adobe Illustrator 27.8.1, SVG Export Plug-In . SVG Version: 6.00 Build 0)  -->
<svg version="1.1" id="Layer_1" xmlns="http://www.w3.org/2000/svg" xmlns:xlink="http://www.w3.org/1999/xlink" x="0px" y="0px"
	 viewBox="0 0 3000 3000" style="enable-background:new 0 0 3000 3000;" xml:space="preserve">
<style type="text/css">
	.st0{fill:#010101;}
</style>
<g>
	<path class="st0" d="M2092.72,2234.45h-378.83c-49.88,0-98.63-17.65-135.25-51.51c-3.67-3.37-7.34-6.94-10.91-10.51
		c-8.06-8.06-15.71-16.42-22.95-24.99c-29.78-35.5-44.88-81.09-44.88-127.5v-378.32c0-78.23-63.44-141.68-141.68-141.68H979.9
		c-46.41,0-92-15.1-127.5-44.88c-8.57-7.14-16.93-14.79-24.99-22.95c-3.57-3.57-7.04-7.24-10.51-10.91
		c-33.86-36.62-51.51-85.37-51.51-135.25V907.13c0-78.23-63.44-141.68-141.68-141.68H172.67C94.44,765.45,31,828.89,31,907.13
		v451.04c0,78.23,63.44,141.68,141.68,141.68H551.5c49.88,0,98.63,17.65,135.25,51.51c3.67,3.37,7.34,6.94,10.91,10.51
		c8.06,8.06,15.71,16.42,22.95,24.99c29.78,35.5,44.88,81.09,44.88,127.5v305.49c0,46.41-15.1,92-44.88,127.5
		c-7.14,8.57-14.79,16.93-22.95,24.99c-3.57,3.57-7.24,7.04-10.91,10.51c-36.62,33.86-85.37,51.51-135.25,51.51H172.67
		c-78.23,0-141.68,63.44-141.68,141.68v451.04c0,78.23,63.44,141.68,141.68,141.68h451.04c78.23,0,141.68-63.44,141.68-141.68
		v-378.83c0-49.88,17.65-98.63,51.51-135.25c3.37-3.67,6.94-7.34,10.51-10.91c8.06-8.06,16.42-15.71,24.99-22.95
		c35.5-29.78,81.09-44.88,127.5-44.88h305.49c46.41,0,92,15.1,127.5,44.88c8.57,7.14,16.93,14.79,24.99,22.95
		c3.57,3.57,7.04,7.24,10.51,10.91c33.86,36.62,51.51,85.37,51.51,135.25v378.83c0,78.23,63.44,141.68,141.68,141.68h451.04
		c78.23,0,141.68-63.44,141.68-141.68v-451.04C2234.4,2297.9,2170.96,2234.45,2092.72,2234.45z"/>
	<path class="st0" d="M2279.28,852.66c7.14-8.57,14.79-16.93,22.95-24.99c3.57-3.57,7.24-7.04,10.91-10.51
		c36.62-33.86,85.37-51.51,135.25-51.51h378.83c78.23,0,141.68-63.44,141.68-141.68V172.93c0-78.23-63.44-141.68-141.68-141.68
		h-451.04c-78.23,0-141.68,63.44-141.68,141.68v378.83c0,49.88-17.65,98.63-51.51,135.25c-3.37,3.67-6.94,7.34-10.51,10.91
		c-8.06,8.06-16.42,15.71-24.99,22.95c-35.5,29.78-81.09,44.88-127.5,44.88h-305.49c-46.41,0-92-15.1-127.5-44.88
		c-8.57-7.14-16.93-14.79-24.99-22.95c-3.57-3.57-7.04-7.24-10.51-10.91c-33.86-36.62-51.51-85.37-51.51-135.25V172.93
		c0-78.23-63.44-141.68-141.68-141.68H907.28c-78.23,0-141.68,63.44-141.68,141.68v451.04c0,78.23,63.44,141.68,141.68,141.68
		h378.83c49.88,0,98.63,17.65,135.25,51.51c3.67,3.37,7.34,6.94,10.91,10.51c8.06,8.06,15.71,16.42,22.95,24.99
		c29.78,35.5,44.88,81.09,44.88,127.5v378.32c0,78.23,63.44,141.68,141.68,141.68h378.32c46.41,0,92,15.1,127.5,44.88
		c8.57,7.14,16.93,14.79,24.99,22.95c3.57,3.57,7.04,7.24,10.51,10.91c33.86,36.62,51.51,85.37,51.51,135.25v378.83
		c0,78.23,63.44,141.68,141.68,141.68h451.04c78.23,0,141.68-63.44,141.68-141.68v-451.04c0-78.23-63.44-141.68-141.68-141.68
		H2448.5c-49.88,0-98.63-17.65-135.25-51.51c-3.67-3.37-7.34-6.94-10.91-10.51c-8.06-8.06-15.71-16.42-22.95-24.99
		c-29.78-35.5-44.88-81.09-44.88-127.5V980.26C2234.4,933.75,2249.5,888.15,2279.28,852.66z"/>
</g>
</svg>
